<!-- Generator: Adobe Illustrator 19.1.0, SVG Export Plug-In  -->
<svg version="1.1"
	 xmlns="http://www.w3.org/2000/svg" xmlns:xlink="http://www.w3.org/1999/xlink" xmlns:a="http://ns.adobe.com/AdobeSVGViewerExtensions/3.0/"
	 x="0px" y="0px" width="93.4px" height="66.3px" viewBox="0 0 93.4 66.3" enable-background="new 0 0 93.4 66.3"
	 xml:space="preserve">
<defs>
</defs>
<g id="Footer_copy">
	<polygon fill="#929497" points="40.2,0 51.5,0 44.5,38.7 63.9,38.7 61.7,47.3 31.2,47.3 	"/>
	<g>
		<path fill="#929497" d="M0,56h3.3c0.6,0,1.1,0.1,1.6,0.3c0.4,0.2,0.8,0.5,1.1,0.8c0.3,0.4,0.5,0.8,0.6,1.2s0.2,1,0.2,1.5
			S6.7,61,6.5,61.4c-0.1,0.5-0.3,0.9-0.6,1.2s-0.6,0.6-1.1,0.8c-0.4,0.2-1,0.3-1.6,0.3H0V56z M1.4,62.7h1.4c0.5,0,1-0.1,1.3-0.2
			c0.3-0.1,0.6-0.3,0.8-0.6C5,61.6,5.2,61.4,5.2,61c0.1-0.3,0.1-0.7,0.1-1.1c0-0.4,0-0.8-0.1-1.1c-0.1-0.3-0.2-0.6-0.4-0.9
			c-0.2-0.3-0.5-0.5-0.8-0.6c-0.3-0.1-0.8-0.2-1.3-0.2H1.4V62.7z"/>
		<path fill="#929497" d="M13,58.5c-0.1-0.2-0.1-0.4-0.2-0.6c-0.1-0.2-0.2-0.4-0.4-0.5c-0.2-0.1-0.4-0.2-0.6-0.3s-0.5-0.1-0.8-0.1
			c-0.4,0-0.8,0.1-1.1,0.3c-0.3,0.2-0.6,0.4-0.7,0.7c-0.2,0.3-0.3,0.6-0.4,1c-0.1,0.4-0.1,0.7-0.1,1.1s0,0.7,0.1,1.1
			c0.1,0.4,0.2,0.7,0.4,1c0.2,0.3,0.4,0.5,0.7,0.7c0.3,0.2,0.7,0.3,1.1,0.3c0.3,0,0.6-0.1,0.8-0.2c0.2-0.1,0.4-0.3,0.6-0.4
			c0.2-0.2,0.3-0.4,0.4-0.7c0.1-0.2,0.2-0.5,0.2-0.8h1.3c0,0.5-0.1,0.9-0.3,1.3c-0.2,0.4-0.4,0.7-0.7,1s-0.6,0.5-1,0.7
			S11.5,64,11,64c-0.6,0-1.1-0.1-1.6-0.3c-0.5-0.2-0.9-0.5-1.2-0.9S7.7,62,7.5,61.5s-0.3-1-0.3-1.6c0-0.6,0.1-1.1,0.3-1.6
			c0.2-0.5,0.4-0.9,0.7-1.3s0.7-0.7,1.2-0.9c0.5-0.2,1-0.3,1.6-0.3c0.4,0,0.9,0.1,1.2,0.2s0.7,0.3,1,0.5c0.3,0.2,0.5,0.5,0.7,0.8
			s0.3,0.7,0.3,1.1H13z"/>
		<path fill="#929497" d="M17.3,57.1h1.4V58h0c0.2-0.4,0.5-0.7,0.9-0.8c0.4-0.2,0.8-0.3,1.2-0.3c0.5,0,1,0.1,1.4,0.3
			c0.4,0.2,0.7,0.4,1,0.8c0.3,0.3,0.5,0.7,0.6,1.1c0.1,0.4,0.2,0.9,0.2,1.4c0,0.5-0.1,0.9-0.2,1.3c-0.1,0.4-0.3,0.8-0.5,1.1
			c-0.2,0.3-0.5,0.6-0.9,0.8C22,63.9,21.5,64,21,64c-0.2,0-0.4,0-0.7-0.1c-0.2,0-0.4-0.1-0.6-0.2c-0.2-0.1-0.4-0.2-0.6-0.3
			s-0.3-0.3-0.4-0.5h0v3.4h-1.5V57.1z M22.4,60.5c0-0.3,0-0.6-0.1-0.9s-0.2-0.5-0.4-0.8c-0.2-0.2-0.4-0.4-0.6-0.5
			c-0.2-0.1-0.5-0.2-0.8-0.2c-0.6,0-1.1,0.2-1.4,0.7c-0.3,0.4-0.5,1-0.5,1.7c0,0.3,0,0.7,0.1,0.9c0.1,0.3,0.2,0.5,0.4,0.7
			c0.2,0.2,0.4,0.4,0.6,0.5s0.5,0.2,0.8,0.2c0.3,0,0.6-0.1,0.9-0.2c0.2-0.1,0.4-0.3,0.6-0.5c0.2-0.2,0.3-0.5,0.3-0.8
			C22.4,61.1,22.4,60.8,22.4,60.5z"/>
		<path fill="#929497" d="M30.8,63.8h-1.5v-0.9h0c-0.2,0.3-0.5,0.6-0.8,0.8c-0.4,0.2-0.7,0.3-1.1,0.3c-0.9,0-1.5-0.2-1.9-0.7
			c-0.4-0.4-0.6-1.1-0.6-2v-4.3h1.5v4.1c0,0.6,0.1,1,0.3,1.2c0.2,0.2,0.5,0.4,0.9,0.4c0.3,0,0.6,0,0.8-0.1s0.4-0.2,0.5-0.4
			s0.2-0.4,0.3-0.6c0.1-0.2,0.1-0.5,0.1-0.7v-3.9h1.5V63.8z"/>
		<path fill="#929497" d="M32,54.6h1.5V58h0c0.1-0.2,0.2-0.3,0.4-0.4c0.1-0.1,0.3-0.2,0.5-0.3c0.2-0.1,0.4-0.2,0.6-0.2
			c0.2,0,0.4-0.1,0.6-0.1c0.5,0,1,0.1,1.4,0.3c0.4,0.2,0.7,0.4,1,0.8c0.3,0.3,0.5,0.7,0.6,1.1c0.1,0.4,0.2,0.9,0.2,1.4
			c0,0.5-0.1,0.9-0.2,1.3c-0.1,0.4-0.3,0.8-0.5,1.1c-0.2,0.3-0.5,0.6-0.9,0.8c-0.4,0.2-0.8,0.3-1.3,0.3c-0.2,0-0.5,0-0.7,0
			c-0.2,0-0.4-0.1-0.7-0.2s-0.4-0.2-0.6-0.3s-0.3-0.3-0.4-0.5h0v0.9H32V54.6z M37.2,60.5c0-0.3,0-0.6-0.1-0.9s-0.2-0.5-0.4-0.8
			c-0.2-0.2-0.4-0.4-0.6-0.5c-0.2-0.1-0.5-0.2-0.8-0.2c-0.6,0-1.1,0.2-1.4,0.7c-0.3,0.4-0.5,1-0.5,1.7c0,0.3,0,0.7,0.1,0.9
			c0.1,0.3,0.2,0.5,0.4,0.7c0.2,0.2,0.4,0.4,0.6,0.5s0.5,0.2,0.8,0.2c0.3,0,0.6-0.1,0.9-0.2c0.2-0.1,0.4-0.3,0.6-0.5
			c0.2-0.2,0.3-0.5,0.3-0.8C37.2,61.1,37.2,60.8,37.2,60.5z"/>
		<path fill="#929497" d="M39.6,54.6h1.5v9.3h-1.5V54.6z"/>
		<path fill="#929497" d="M42.5,54.6h1.5V56h-1.5V54.6z M42.5,57.1h1.5v6.7h-1.5V57.1z"/>
		<path fill="#929497" d="M49.8,59.4c-0.1-0.4-0.2-0.7-0.5-0.9c-0.3-0.2-0.6-0.3-1-0.3c-0.2,0-0.4,0-0.6,0.1
			c-0.2,0.1-0.4,0.2-0.6,0.4c-0.2,0.2-0.3,0.4-0.5,0.7c-0.1,0.3-0.2,0.7-0.2,1.2c0,0.3,0,0.6,0.1,0.8s0.2,0.5,0.3,0.7
			c0.1,0.2,0.3,0.4,0.6,0.5c0.2,0.1,0.5,0.2,0.8,0.2c0.4,0,0.8-0.1,1.1-0.4s0.5-0.6,0.5-1.1h1.5c-0.1,0.9-0.5,1.5-1,2
			C49.7,63.8,49,64,48.2,64c-0.5,0-1-0.1-1.4-0.3c-0.4-0.2-0.7-0.4-1-0.7s-0.5-0.7-0.6-1.1s-0.2-0.9-0.2-1.4c0-0.5,0.1-1,0.2-1.4
			s0.3-0.8,0.6-1.2s0.6-0.6,1-0.8c0.4-0.2,0.9-0.3,1.4-0.3c0.4,0,0.8,0,1.1,0.1c0.4,0.1,0.7,0.2,0.9,0.4s0.5,0.5,0.7,0.8
			s0.3,0.7,0.3,1.1H49.8z"/>
		<path fill="#929497" d="M56.6,54.6v9.3h-1.8v-9.3H56.6z"/>
		<path fill="#929497" d="M58.2,56.1v-1.5H60v1.5H58.2z M60,57.1v6.7h-1.8v-6.7H60z"/>
		<path fill="#929497" d="M63.4,54.6v3.4h0c0.2-0.3,0.5-0.6,0.9-0.8c0.4-0.2,0.8-0.2,1.2-0.2c0.3,0,0.7,0.1,1,0.2
			c0.3,0.1,0.6,0.4,0.9,0.6c0.3,0.3,0.5,0.7,0.6,1.1c0.2,0.4,0.2,1,0.2,1.6s-0.1,1.1-0.2,1.6s-0.4,0.8-0.6,1.1
			c-0.3,0.3-0.6,0.5-0.9,0.6c-0.3,0.1-0.7,0.2-1,0.2c-0.5,0-0.9-0.1-1.3-0.2c-0.4-0.2-0.7-0.4-0.9-0.8h0v0.9h-1.8v-9.3H63.4z
			 M66.4,59.7c-0.1-0.3-0.2-0.5-0.3-0.7c-0.1-0.2-0.3-0.4-0.5-0.5c-0.2-0.1-0.4-0.2-0.7-0.2c-0.3,0-0.5,0.1-0.7,0.2
			c-0.2,0.1-0.4,0.3-0.5,0.5c-0.1,0.2-0.2,0.4-0.3,0.7c-0.1,0.3-0.1,0.5-0.1,0.8c0,0.3,0,0.5,0.1,0.8c0.1,0.3,0.2,0.5,0.3,0.7
			c0.1,0.2,0.3,0.4,0.5,0.5c0.2,0.1,0.4,0.2,0.7,0.2c0.3,0,0.5-0.1,0.7-0.2c0.2-0.1,0.4-0.3,0.5-0.5c0.1-0.2,0.2-0.4,0.3-0.7
			c0.1-0.3,0.1-0.5,0.1-0.8C66.5,60.2,66.4,59.9,66.4,59.7z"/>
		<path fill="#929497" d="M71.3,57.1v1.2h0c0.1-0.2,0.2-0.4,0.4-0.6s0.3-0.3,0.5-0.5c0.2-0.1,0.4-0.2,0.6-0.3
			c0.2-0.1,0.4-0.1,0.7-0.1c0.1,0,0.3,0,0.4,0.1v1.7c-0.1,0-0.2,0-0.3,0c-0.1,0-0.2,0-0.4,0c-0.3,0-0.6,0.1-0.9,0.2
			c-0.2,0.1-0.4,0.3-0.6,0.5s-0.2,0.4-0.3,0.7c-0.1,0.3-0.1,0.5-0.1,0.8v3h-1.8v-6.7H71.3z"/>
		<path fill="#929497" d="M74.6,59.2c0-0.4,0.1-0.8,0.3-1.1c0.2-0.3,0.4-0.5,0.7-0.7c0.3-0.2,0.6-0.3,1-0.4c0.4-0.1,0.7-0.1,1.1-0.1
			c0.3,0,0.7,0,1,0.1c0.3,0,0.7,0.1,0.9,0.3c0.3,0.1,0.5,0.3,0.7,0.6s0.3,0.6,0.3,1v3.5c0,0.3,0,0.6,0.1,0.9c0,0.3,0.1,0.5,0.2,0.6
			h-1.9c0-0.1-0.1-0.2-0.1-0.3c0-0.1,0-0.2,0-0.3c-0.3,0.3-0.6,0.5-1,0.6c-0.4,0.1-0.8,0.2-1.2,0.2c-0.3,0-0.6,0-0.9-0.1
			c-0.3-0.1-0.5-0.2-0.7-0.4c-0.2-0.2-0.4-0.4-0.5-0.6c-0.1-0.3-0.2-0.6-0.2-0.9c0-0.4,0.1-0.7,0.2-0.9c0.1-0.2,0.3-0.4,0.5-0.6
			c0.2-0.1,0.5-0.3,0.7-0.3c0.3-0.1,0.5-0.1,0.8-0.2c0.3,0,0.6-0.1,0.8-0.1c0.3,0,0.5-0.1,0.7-0.1c0.2-0.1,0.4-0.1,0.5-0.2
			c0.1-0.1,0.2-0.2,0.2-0.4c0-0.2,0-0.4-0.1-0.5s-0.2-0.2-0.3-0.3c-0.1-0.1-0.2-0.1-0.4-0.1c-0.1,0-0.3,0-0.5,0
			c-0.4,0-0.6,0.1-0.9,0.2c-0.2,0.2-0.3,0.4-0.4,0.8H74.6z M78.8,60.5c-0.1,0.1-0.2,0.1-0.3,0.2c-0.1,0-0.2,0.1-0.4,0.1
			c-0.1,0-0.3,0-0.4,0.1s-0.3,0-0.4,0.1C77.2,61,77,61,76.9,61s-0.3,0.1-0.4,0.2c-0.1,0.1-0.2,0.2-0.2,0.3s-0.1,0.3-0.1,0.4
			c0,0.2,0,0.3,0.1,0.4c0.1,0.1,0.1,0.2,0.2,0.3s0.2,0.1,0.4,0.1c0.1,0,0.3,0,0.4,0c0.4,0,0.6-0.1,0.8-0.2c0.2-0.1,0.3-0.3,0.4-0.4
			c0.1-0.2,0.2-0.3,0.2-0.5c0-0.2,0-0.3,0-0.4V60.5z"/>
		<path fill="#929497" d="M83.9,57.1v1.2h0c0.1-0.2,0.2-0.4,0.4-0.6s0.3-0.3,0.5-0.5c0.2-0.1,0.4-0.2,0.6-0.3
			c0.2-0.1,0.4-0.1,0.7-0.1c0.1,0,0.3,0,0.4,0.1v1.7c-0.1,0-0.2,0-0.3,0c-0.1,0-0.2,0-0.4,0c-0.3,0-0.6,0.1-0.9,0.2
			c-0.2,0.1-0.4,0.3-0.6,0.5s-0.2,0.4-0.3,0.7c-0.1,0.3-0.1,0.5-0.1,0.8v3h-1.8v-6.7H83.9z"/>
		<path fill="#929497" d="M89.8,65.8c-0.4,0.2-0.8,0.4-1.5,0.4c-0.2,0-0.4,0-0.6,0c-0.2,0-0.4,0-0.6,0v-1.5c0.2,0,0.4,0,0.5,0.1
			c0.2,0,0.4,0,0.5,0c0.2,0,0.4-0.1,0.5-0.3c0.1-0.2,0.2-0.3,0.2-0.5c0-0.1,0-0.3-0.1-0.4l-2.4-6.3h2l1.5,4.6h0l1.5-4.6h1.9
			l-2.8,7.6C90.4,65.2,90.1,65.6,89.8,65.8z"/>
	</g>
</g>
</svg>
