<!-- Generator: Adobe Illustrator 19.1.0, SVG Export Plug-In  -->
<svg version="1.1"
	 xmlns="http://www.w3.org/2000/svg" xmlns:xlink="http://www.w3.org/1999/xlink" xmlns:a="http://ns.adobe.com/AdobeSVGViewerExtensions/3.0/"
	 x="0px" y="0px" width="76.6px" height="37.4px" viewBox="0 0 76.6 37.4" enable-background="new 0 0 76.6 37.4"
	 xml:space="preserve">
<defs>
</defs>
<g>
	<g>
		<path fill="#FFFFFF" d="M29.7,27.8c-9.3,0-18.3-0.2-25.8-0.6C2.8,27.1,2,26.1,2,25s1-1.9,2.1-1.9c19.6,1.1,49.2,0.7,67.4-0.9
			c1.1-0.1,2.1,0.7,2.2,1.8c0.1,1.1-0.7,2.1-1.8,2.2C60.5,27.2,44.7,27.8,29.7,27.8z"/>
	</g>
	<g>
		<path fill="#FFFFFF" d="M2,37.4c-1.1,0-2-0.9-2-2s0.9-2,2-2c10.3,0,23.5-0.3,36.3-0.5c12.8-0.2,26-0.5,36.3-0.5c1.1,0,2,0.9,2,2
			s-0.9,2-2,2c-10.3,0-23.5,0.3-36.3,0.5C25.6,37.1,12.4,37.4,2,37.4z"/>
	</g>
	<polygon fill="#FFFFFF" points="11.9,0 14,6.4 20.7,6.4 15.3,10.3 17.3,16.6 11.9,12.7 6.5,16.6 8.6,10.3 3.2,6.4 9.9,6.4 	"/>
	<polygon fill="#FFFFFF" points="38.3,0 40.4,6.4 47,6.4 41.6,10.3 43.7,16.6 38.3,12.7 32.9,16.6 35,10.3 29.6,6.4 36.2,6.4 	"/>
	<polygon fill="#FFFFFF" points="64.7,0 66.7,6.4 73.4,6.4 68,10.3 70.1,16.6 64.7,12.7 59.3,16.6 61.3,10.3 55.9,6.4 62.6,6.4 	"/>
</g>
</svg>
